<svg width="128" height="128" fill="none" xmlns="http://www.w3.org/2000/svg"><path d="M67.079 31.581C67.079 21.886 59.192 14 49.498 14c-10.218 0-16.326 7.66-16.326 15.07H43.22c0-2.085 1.948-5.024 6.279-5.024 4.154 0 7.534 3.381 7.534 7.535 0 4.155-3.032 7.535-10.679 7.535H19v10.047h27.353c12.906 0 20.726-7.887 20.726-17.582zm0 0C67.079 21.886 59.192 14 49.498 14c-10.218 0-16.326 7.66-16.326 15.07H43.22c0-2.085 1.948-5.024 6.279-5.024 4.154 0 7.534 3.381 7.534 7.535 0 4.155-3.032 7.535-10.679 7.535H19v10.047h27.353c12.906 0 20.726-7.887 20.726-17.582z" fill="url(#prefix__paint0_linear)"/><path d="M89.367 96.419c0 9.695-7.887 17.581-17.582 17.581-10.217 0-16.325-7.66-16.325-15.07h10.046c0 2.085 1.95 5.024 6.28 5.024 4.154 0 7.534-3.381 7.534-7.535s-3.82-7.535-10.679-7.535H38.288V78.838H68.64c12.906 0 20.726 7.886 20.726 17.58zm0 0c0 9.695-7.887 17.581-17.582 17.581-10.217 0-16.325-7.66-16.325-15.07h10.046c0 2.085 1.95 5.024 6.28 5.024 4.154 0 7.534-3.381 7.534-7.535s-3.82-7.535-10.679-7.535H38.288V78.838H68.64c12.906 0 20.726 7.886 20.726 17.58z" fill="url(#prefix__paint1_linear)"/><path d="M92 29.5c-11.081 0-18.898 8.427-18.898 19.508H82C82 43.5 86 39.5 92 39.5s9 4 9 9.508c0 5.508-3.896 10.046-14.5 10.046H19v10.047h69c15.703 0 23-10.093 23-20.093 0-11.081-7.5-19.508-19-19.508z" fill="url(#prefix__paint2_linear)"/><path d="M32.17 78.838H19v10.13h13.17v-10.13z" fill="url(#prefix__paint3_linear)"/><defs><linearGradient id="prefix__paint0_linear" x1="27" y1="22.5" x2="85" y2="114" gradientUnits="userSpaceOnUse"><stop offset=".078" stop-color="#54C8F1"/><stop offset=".573" stop-color="#41A2EF"/><stop offset="1" stop-color="#3386EE"/></linearGradient><linearGradient id="prefix__paint1_linear" x1="27" y1="22.5" x2="85" y2="114" gradientUnits="userSpaceOnUse"><stop offset=".078" stop-color="#54C8F1"/><stop offset=".573" stop-color="#41A2EF"/><stop offset="1" stop-color="#3386EE"/></linearGradient><linearGradient id="prefix__paint2_linear" x1="27" y1="22.5" x2="85" y2="114" gradientUnits="userSpaceOnUse"><stop offset=".078" stop-color="#54C8F1"/><stop offset=".573" stop-color="#41A2EF"/><stop offset="1" stop-color="#3386EE"/></linearGradient><linearGradient id="prefix__paint3_linear" x1="27" y1="22.5" x2="85" y2="114" gradientUnits="userSpaceOnUse"><stop offset=".078" stop-color="#54C8F1"/><stop offset=".573" stop-color="#41A2EF"/><stop offset="1" stop-color="#3386EE"/></linearGradient></defs></svg>