<svg width="95" height="19" fill="none" xmlns="http://www.w3.org/2000/svg"><path d="M.517 18V.545h6.989c1.284 0 2.355.19 3.213.571.858.381 1.503.91 1.934 1.586.432.67.648 1.443.648 2.318 0 .682-.136 1.281-.409 1.798a3.53 3.53 0 01-1.125 1.262 4.61 4.61 0 01-1.62.69v.17a3.909 3.909 0 011.867.563c.585.346 1.06.832 1.424 1.457.363.62.545 1.358.545 2.216 0 .926-.23 1.753-.69 2.48-.455.722-1.128 1.293-2.02 1.713-.892.42-1.992.631-3.299.631H.517zm3.69-3.017h3.009c1.028 0 1.778-.196 2.25-.588.472-.398.707-.926.707-1.585 0-.483-.116-.91-.35-1.279a2.374 2.374 0 00-.996-.87c-.426-.21-.935-.314-1.526-.314H4.207v4.636zm0-7.134h2.736c.506 0 .955-.088 1.347-.264a2.24 2.24 0 00.937-.767c.233-.33.35-.724.35-1.184 0-.631-.225-1.14-.674-1.526-.443-.386-1.073-.58-1.892-.58H4.207V7.85zM16.077 18V4.91h3.519v2.283h.136c.239-.812.64-1.426 1.202-1.84.563-.421 1.21-.631 1.943-.631.182 0 .378.01.588.034.21.022.395.054.554.093v3.222a4.741 4.741 0 00-.707-.136 6.355 6.355 0 00-.827-.06c-.534 0-1.011.116-1.432.35a2.573 2.573 0 00-.988.954c-.239.41-.358.88-.358 1.415V18h-3.63zm14.885.256c-1.324 0-2.469-.282-3.435-.844a5.774 5.774 0 01-2.224-2.37c-.523-1.016-.784-2.195-.784-3.536 0-1.353.26-2.534.784-3.546a5.705 5.705 0 012.224-2.37c.966-.567 2.11-.851 3.435-.851 1.324 0 2.466.284 3.426.852a5.69 5.69 0 012.233 2.37c.523 1.01.784 2.192.784 3.545 0 1.34-.261 2.52-.784 3.537a5.758 5.758 0 01-2.233 2.369c-.96.562-2.102.844-3.426.844zm.017-2.813c.602 0 1.105-.17 1.508-.511.404-.347.708-.818.912-1.415.21-.596.316-1.275.316-2.037 0-.761-.106-1.44-.316-2.037-.204-.596-.508-1.068-.912-1.415-.403-.346-.906-.52-1.508-.52-.608 0-1.12.174-1.534.52-.41.347-.719.819-.93 1.415-.204.597-.306 1.276-.306 2.037 0 .761.102 1.44.307 2.037.21.597.52 1.068.929 1.415.415.34.926.511 1.534.511zM41.78 18L38.217 4.91h3.674l2.028 8.794h.12l2.113-8.795h3.605l2.148 8.744h.11L54.01 4.91h3.665L54.12 18h-3.844l-2.25-8.233h-.162L45.615 18H41.78zm28.484-9.358l-3.324.205a1.72 1.72 0 00-.367-.767 1.945 1.945 0 00-.741-.554c-.301-.142-.662-.213-1.082-.213-.563 0-1.037.119-1.424.357-.386.233-.58.546-.58.938 0 .312.126.577.376.793.25.215.679.389 1.287.52l2.369.477c1.273.261 2.221.681 2.846 1.261.626.58.938 1.341.938 2.284 0 .858-.253 1.611-.758 2.259-.5.647-1.188 1.153-2.063 1.517-.87.358-1.872.537-3.008.537-1.734 0-3.114-.361-4.143-1.083-1.022-.727-1.622-1.716-1.798-2.966l3.571-.187c.108.528.37.932.784 1.21.415.273.946.41 1.594.41.636 0 1.148-.123 1.534-.367.392-.25.591-.571.597-.963-.006-.33-.145-.6-.418-.81-.273-.216-.693-.38-1.261-.494l-2.267-.452c-1.279-.256-2.23-.699-2.855-1.33-.62-.63-.93-1.434-.93-2.412 0-.84.228-1.565.682-2.173.46-.608 1.105-1.077 1.935-1.406.835-.33 1.813-.494 2.932-.494 1.653 0 2.954.35 3.903 1.048.955.699 1.512 1.65 1.67 2.855zm8.31 9.614c-1.346 0-2.505-.273-3.477-.819a5.604 5.604 0 01-2.233-2.335c-.523-1.011-.784-2.207-.784-3.588 0-1.346.261-2.528.784-3.545A5.796 5.796 0 0175.07 5.59c.955-.568 2.074-.852 3.358-.852.864 0 1.668.139 2.412.417a5.35 5.35 0 011.96 1.236c.563.551 1 1.244 1.313 2.08.312.83.469 1.8.469 2.914v.998H73.529v-2.25h7.636c0-.523-.114-.986-.34-1.39a2.442 2.442 0 00-.947-.946c-.398-.233-.86-.35-1.39-.35-.55 0-1.039.129-1.465.384-.42.25-.75.588-.989 1.015-.238.42-.36.889-.366 1.406v2.139c0 .648.12 1.207.358 1.679a2.62 2.62 0 001.031 1.09c.443.257.969.385 1.577.385.403 0 .772-.057 1.108-.171a2.3 2.3 0 00.86-.511c.24-.228.421-.506.546-.836l3.358.222a4.585 4.585 0 01-1.048 2.114c-.523.596-1.2 1.062-2.029 1.397-.824.33-1.775.495-2.855.495zM86.712 18V4.91h3.52v2.283h.136c.239-.812.64-1.426 1.202-1.84.562-.421 1.21-.631 1.943-.631.182 0 .378.01.588.034.21.022.395.054.554.093v3.222a4.746 4.746 0 00-.707-.136 6.356 6.356 0 00-.827-.06c-.534 0-1.011.116-1.432.35a2.573 2.573 0 00-.988.954c-.239.41-.358.88-.358 1.415V18h-3.631z" fill="#fff"/></svg>