<svg width="552" height="113" fill="none" xmlns="http://www.w3.org/2000/svg"><path d="M.261 15.94V.727h71.677V15.94h-26.72V88H26.98V15.94H.261zM91.96 89.236c-4.176 0-7.898-.725-11.165-2.174-3.267-1.477-5.852-3.65-7.755-6.52-1.875-2.897-2.813-6.505-2.813-10.823 0-3.637.668-6.69 2.003-9.162 1.335-2.472 3.153-4.46 5.454-5.966 2.302-1.506 4.915-2.642 7.841-3.41a59.775 59.775 0 019.29-1.618c3.807-.398 6.875-.768 9.205-1.108 2.329-.37 4.02-.91 5.071-1.62 1.051-.71 1.576-1.761 1.576-3.153v-.256c0-2.699-.852-4.787-2.556-6.264-1.676-1.477-4.063-2.216-7.159-2.216-3.267 0-5.867.724-7.799 2.173-1.931 1.42-3.21 3.21-3.835 5.37l-16.79-1.364c.852-3.977 2.529-7.415 5.029-10.313 2.5-2.926 5.724-5.17 9.673-6.733 3.977-1.59 8.58-2.386 13.807-2.386 3.636 0 7.116.426 10.44 1.279 3.352.852 6.321 2.173 8.906 3.963a19.25 19.25 0 016.179 6.903c1.506 2.784 2.259 6.122 2.259 10.014V88h-17.216v-9.077h-.511a18.494 18.494 0 01-4.219 5.412c-1.761 1.534-3.878 2.742-6.35 3.622-2.471.853-5.326 1.279-8.565 1.279zm5.199-12.529c2.67 0 5.028-.525 7.074-1.576 2.045-1.08 3.65-2.529 4.815-4.347 1.165-1.818 1.747-3.878 1.747-6.179V57.66c-.568.37-1.349.71-2.343 1.023-.966.284-2.06.554-3.282.81-1.221.227-2.443.44-3.664.639-1.222.17-2.33.326-3.324.468-2.131.313-3.992.81-5.583 1.492-1.59.682-2.826 1.605-3.707 2.77-.88 1.136-1.321 2.557-1.321 4.261 0 2.472.895 4.361 2.684 5.668 1.819 1.278 4.12 1.917 6.904 1.917zm74.12 12.571c-6.705 0-12.472-1.42-17.302-4.261-4.801-2.87-8.494-6.846-11.079-11.932-2.557-5.085-3.835-10.937-3.835-17.557 0-6.704 1.292-12.585 3.877-17.642 2.614-5.085 6.322-9.048 11.123-11.889 4.801-2.87 10.511-4.304 17.13-4.304 5.711 0 10.711 1.037 15 3.111 4.29 2.074 7.685 4.986 10.185 8.736 2.5 3.75 3.878 8.153 4.134 13.21H183.38c-.483-3.267-1.762-5.895-3.835-7.883-2.046-2.018-4.731-3.026-8.054-3.026-2.813 0-5.27.767-7.373 2.301-2.073 1.506-3.693 3.707-4.857 6.605-1.165 2.898-1.748 6.406-1.748 10.526 0 4.176.569 7.727 1.705 10.653 1.165 2.926 2.798 5.156 4.9 6.69 2.103 1.535 4.56 2.302 7.373 2.302 2.073 0 3.934-.427 5.582-1.279 1.676-.852 3.054-2.088 4.134-3.707 1.107-1.648 1.832-3.622 2.173-5.924h17.131c-.285 5-1.648 9.404-4.091 13.21-2.415 3.78-5.753 6.734-10.015 8.864-4.261 2.131-9.304 3.196-15.127 3.196zm57.809-39.119V88h-18.154V.727h17.642v33.367h.767c1.478-3.864 3.864-6.89 7.16-9.077 3.295-2.216 7.429-3.324 12.4-3.324 4.546 0 8.509.994 11.889 2.983 3.409 1.96 6.051 4.787 7.926 8.48 1.904 3.665 2.841 8.054 2.813 13.168V88h-18.153V49.562c.028-4.034-.995-7.173-3.069-9.417-2.045-2.244-4.914-3.367-8.608-3.367-2.471 0-4.659.526-6.562 1.577-1.875 1.051-3.352 2.585-4.432 4.602-1.051 1.989-1.591 4.39-1.619 7.202zm64.393 62.386c-2.301 0-4.46-.184-6.477-.554-1.989-.34-3.637-.781-4.944-1.321l4.091-13.55c2.131.653 4.049 1.008 5.753 1.065 1.733.056 3.225-.341 4.475-1.194 1.278-.852 2.315-2.3 3.11-4.346l1.066-2.77-23.48-67.33h19.091l13.551 48.069h.681l13.679-48.069h19.219l-25.44 72.529c-1.222 3.523-2.884 6.591-4.986 9.204-2.074 2.642-4.702 4.674-7.883 6.094-3.182 1.449-7.018 2.173-11.506 2.173zm85.369-23.267c-6.619 0-12.343-1.406-17.173-4.218-4.801-2.841-8.508-6.79-11.122-11.847-2.614-5.085-3.92-10.98-3.92-17.685 0-6.761 1.306-12.67 3.92-17.727 2.614-5.085 6.321-9.034 11.122-11.847 4.83-2.84 10.554-4.26 17.173-4.26 6.62 0 12.33 1.42 17.131 4.26 4.83 2.813 8.551 6.762 11.165 11.847 2.614 5.057 3.92 10.966 3.92 17.727 0 6.705-1.306 12.6-3.92 17.685-2.614 5.057-6.335 9.006-11.165 11.847-4.801 2.812-10.511 4.218-17.131 4.218zm.086-14.062c3.011 0 5.525-.852 7.542-2.557 2.017-1.733 3.537-4.09 4.56-7.074 1.051-2.983 1.577-6.378 1.577-10.184 0-3.807-.526-7.202-1.577-10.185-1.023-2.983-2.543-5.341-4.56-7.074-2.017-1.733-4.531-2.6-7.542-2.6-3.04 0-5.597.867-7.671 2.6-2.045 1.733-3.594 4.091-4.645 7.074-1.022 2.983-1.534 6.378-1.534 10.185 0 3.806.512 7.201 1.534 10.184 1.051 2.983 2.6 5.341 4.645 7.074 2.074 1.705 4.631 2.557 7.671 2.557zm60.888-25.057V88h-18.154V22.546h17.301v11.548h.767c1.449-3.807 3.878-6.818 7.287-9.034 3.41-2.245 7.543-3.367 12.401-3.367 4.545 0 8.509.994 11.889 2.983 3.381 1.989 6.009 4.83 7.884 8.523 1.875 3.665 2.812 8.04 2.812 13.125V88h-18.153V49.562c.028-4.005-.995-7.13-3.068-9.374-2.074-2.273-4.929-3.41-8.566-3.41-2.443 0-4.602.526-6.477 1.577-1.847 1.051-3.295 2.585-4.347 4.602-1.022 1.989-1.548 4.39-1.576 7.202zm109.755-8.949l-16.619 1.023a8.586 8.586 0 00-1.833-3.835c-.937-1.165-2.173-2.088-3.707-2.77-1.506-.71-3.31-1.066-5.412-1.066-2.813 0-5.185.597-7.117 1.79-1.931 1.165-2.897 2.728-2.897 4.688 0 1.562.625 2.883 1.875 3.963s3.395 1.946 6.434 2.6l11.847 2.386c6.364 1.306 11.108 3.409 14.233 6.306 3.125 2.898 4.687 6.705 4.687 11.42 0 4.29-1.264 8.055-3.792 11.293-2.5 3.24-5.938 5.768-10.313 7.586-4.346 1.79-9.36 2.684-15.042 2.684-8.665 0-15.568-1.804-20.71-5.412-5.114-3.636-8.111-8.58-8.992-14.83l17.855-.937c.54 2.642 1.847 4.66 3.921 6.052 2.073 1.363 4.73 2.045 7.968 2.045 3.182 0 5.739-.61 7.671-1.832 1.96-1.25 2.954-2.856 2.983-4.816-.029-1.647-.725-2.997-2.088-4.048-1.364-1.08-3.466-1.903-6.307-2.472l-11.335-2.258c-6.392-1.279-11.151-3.494-14.276-6.648-3.097-3.153-4.645-7.173-4.645-12.06 0-4.204 1.137-7.826 3.409-10.866 2.301-3.04 5.526-5.384 9.674-7.031 4.176-1.648 9.062-2.472 14.659-2.472 8.267 0 14.772 1.747 19.517 5.242 4.772 3.494 7.557 8.253 8.352 14.275z" fill="#fff"/></svg>