<svg width="26" height="25" fill="none" xmlns="http://www.w3.org/2000/svg"><path d="M22.783 6.478c.015.26.015.52.015.784 0 8.007-5.083 17.241-14.38 17.241v-.005c-2.745.005-5.434-.938-7.746-2.716.4.058.8.086 1.203.087 2.276.003 4.486-.913 6.277-2.599-2.163-.049-4.06-1.74-4.722-4.208.758.176 1.538.14 2.282-.104-2.358-.571-4.054-3.055-4.054-5.94v-.077c.702.47 1.489.73 2.293.759-2.22-1.78-2.905-5.322-1.564-8.091 2.566 3.785 6.352 6.087 10.416 6.33-.407-2.104.15-4.31 1.462-5.79 2.036-2.293 5.237-2.176 7.15.264a9.193 9.193 0 003.21-1.471c-.378 1.402-1.167 2.594-2.222 3.351a8.787 8.787 0 002.902-.954 11.632 11.632 0 01-2.522 3.139z" fill="#1D9BF0"/></svg>