<svg width="1000" height="273" viewBox="0 0 1000 273" fill="none" xmlns="http://www.w3.org/2000/svg">
<path d="M354.495 207.538C338.374 207.538 325.223 204.073 315.041 197.144C305.001 190.074 299.981 180.104 299.981 167.236C299.981 165.964 300.123 164.055 300.406 161.509H338.162C337.738 166.883 339.01 171.125 341.98 174.236C344.949 177.347 349.475 178.903 355.555 178.903C361.07 178.903 365.383 177.701 368.494 175.297C371.746 172.893 373.373 169.499 373.373 165.115C373.373 160.59 371.322 156.913 367.221 154.085C363.262 151.257 357.04 148.075 348.555 144.54C340.354 141.146 333.637 137.965 328.405 134.995C323.314 131.884 318.86 127.712 315.041 122.48C311.223 117.248 309.314 110.673 309.314 102.754C309.173 92.9966 311.577 84.512 316.526 77.3002C321.476 70.0883 328.334 64.5734 337.101 60.7553C345.869 56.9373 355.909 55.0283 367.221 55.0283C377.403 55.0283 386.453 56.6545 394.372 59.9069C402.291 63.0179 408.442 67.6137 412.826 73.6943C417.209 79.6334 419.401 86.7039 419.401 94.9056C419.401 97.0267 419.331 98.5822 419.189 99.5721H380.585C380.726 99.0065 380.797 98.158 380.797 97.0267C380.797 93.0673 379.383 89.8856 376.554 87.4816C373.868 84.9363 370.12 83.6636 365.312 83.6636C360.222 83.6636 356.05 84.9363 352.798 87.4816C349.687 89.8856 348.131 93.2087 348.131 97.451C348.131 101.693 350.111 105.299 354.07 108.269C358.03 111.097 364.181 114.42 372.524 118.238C380.867 122.056 387.655 125.591 392.887 128.844C398.261 132.096 402.856 136.48 406.674 141.995C410.493 147.368 412.402 154.015 412.402 161.933C412.402 170.701 410.068 178.549 405.402 185.478C400.735 192.407 394.018 197.851 385.251 201.811C376.484 205.629 366.232 207.538 354.495 207.538Z" fill="white"/>
<path d="M477.99 165.327C477.848 166.034 477.778 166.953 477.778 168.085C477.778 170.63 478.485 172.468 479.899 173.6C481.454 174.731 483.929 175.297 487.323 175.297H500.262L494.747 206.053H476.293C452.536 206.053 440.658 196.084 440.658 176.145C440.658 173.175 441.011 169.428 441.718 164.903L450.203 117.814H435.779L441.082 87.6937H455.506L460.597 58.8463H496.868L491.777 87.6937H515.534L510.231 117.814H486.474L477.99 165.327Z" fill="white"/>
<path d="M564.403 87.6937L578.827 161.721L619.129 87.6937H658.37L553.373 262.263H514.345L552.101 202.023L524.102 87.6937H564.403Z" fill="white"/>
<path d="M716.06 49.0891L688.273 206.053H652.002L679.789 49.0891H716.06Z" fill="white"/>
<path d="M757.436 75.3912C751.779 75.3912 747.254 73.9064 743.861 70.9368C740.608 67.8258 738.982 63.937 738.982 59.2705C738.982 52.9071 741.457 47.4629 746.406 42.9378C751.355 38.4127 757.365 36.1502 764.435 36.1502C770.092 36.1502 774.546 37.7057 777.799 40.8167C781.051 43.7863 782.677 47.675 782.677 52.4829C782.677 58.7049 780.203 64.0785 775.253 68.6035C770.304 73.1286 764.365 75.3912 757.436 75.3912ZM773.132 87.6937L752.345 206.053H716.074L736.861 87.6937H773.132Z" fill="white"/>
<path d="M862.87 70.7247C855.941 70.3004 850.85 71.2903 847.598 73.6943C844.487 76.0982 842.366 80.4112 841.234 86.6332L841.022 87.6937H860.537L855.234 117.814H835.719L820.235 206.053H783.752L799.236 117.814H786.085L791.388 87.6937H804.539L805.175 84.2999C807.862 69.7348 814.013 58.7049 823.629 51.2102C833.386 43.5741 846.325 39.7561 862.446 39.7561C864.991 39.7561 866.9 39.8268 868.173 39.9682L862.87 70.7247Z" fill="white"/>
<path d="M906.034 87.6937L920.458 161.721L960.759 87.6937H1000L895.004 262.263H855.975L893.731 202.023L865.732 87.6937H906.034Z" fill="white"/>
<path d="M0 136.359C0 61.0498 61.0498 0 136.359 0C211.667 0 272.717 61.0498 272.717 136.359C272.717 211.667 211.667 272.717 136.359 272.717C61.0498 272.717 0 211.667 0 136.359Z" fill="#01BEFE"/>
<path d="M195.432 121.879C193.28 121.879 191.423 123.388 190.983 125.494L187.051 144.298C186.461 147.121 188.616 149.773 191.5 149.773H206.357C208.868 149.773 210.903 151.808 210.903 154.319V178.02C210.903 180.53 208.868 182.565 206.357 182.565H182.719C180.57 182.565 178.715 184.07 178.271 186.172L172.919 211.537C172.476 213.639 170.621 215.144 168.472 215.144H144.434C141.546 215.144 139.391 212.486 139.987 209.66L144.547 188.049C145.143 185.223 142.987 182.565 140.099 182.565H114.812C112.663 182.565 110.808 184.07 110.364 186.172L105.012 211.537C104.569 213.639 102.714 215.144 100.565 215.144H76.5273C73.6394 215.144 71.4837 212.486 72.0799 209.66L76.6398 188.049C77.2361 185.223 75.0804 182.565 72.1925 182.565H51.5133C49.003 182.565 46.968 180.53 46.968 178.02V154.319C46.968 151.808 49.003 149.773 51.5133 149.773H80.9777C83.1294 149.773 84.9864 148.265 85.4268 146.158L89.3585 127.355C89.9488 124.531 87.7939 121.879 84.9094 121.879H64.8447C62.3344 121.879 60.2994 119.844 60.2994 117.334V93.6329C60.2994 91.1226 62.3344 89.0876 64.8447 89.0876H93.4847C95.6324 89.0876 97.4871 87.5842 97.9316 85.4829L103.072 61.1783C103.517 59.077 105.371 57.5736 107.519 57.5736H131.556C134.445 57.5736 136.601 60.2332 136.003 63.0595L131.658 83.6018C131.06 86.428 133.216 89.0876 136.105 89.0876H161.392C163.539 89.0876 165.394 87.5842 165.838 85.4829L170.979 61.1783C171.424 59.077 173.278 57.5736 175.426 57.5736H199.463C202.352 57.5736 204.508 60.2332 203.91 63.0595L199.565 83.6018C198.967 86.428 201.123 89.0876 204.012 89.0876H219.689C222.199 89.0876 224.234 91.1226 224.234 93.6329V117.334C224.234 119.844 222.199 121.879 219.689 121.879H195.432ZM157.265 127.355C157.856 124.531 155.701 121.879 152.816 121.879H127.525C125.373 121.879 123.516 123.388 123.076 125.494L119.144 144.298C118.554 147.121 120.709 149.773 123.593 149.773H148.885C151.036 149.773 152.893 148.265 153.334 146.158L157.265 127.355Z" fill="white"/>
<path d="M132.766 177.266C123.971 177.266 116.797 175.373 111.242 171.587C105.765 167.724 103.027 162.277 103.027 155.246C103.027 154.55 103.104 153.507 103.258 152.116H123.856C123.624 155.053 124.319 157.37 125.939 159.07C127.559 160.77 130.027 161.62 133.345 161.62C136.353 161.62 138.706 160.963 140.403 159.65C142.178 158.336 143.065 156.482 143.065 154.087C143.065 151.614 141.946 149.605 139.709 148.06C137.549 146.515 134.155 144.776 129.526 142.845C125.051 140.99 121.387 139.252 118.533 137.629C115.755 135.929 113.325 133.65 111.242 130.791C109.16 127.933 108.118 124.34 108.118 120.013C108.041 114.682 109.352 110.046 112.053 106.105C114.753 102.165 118.494 99.1513 123.277 97.0652C128.06 94.979 133.537 93.9359 139.709 93.9359C145.264 93.9359 150.201 94.8245 154.521 96.6016C158.841 98.3014 162.197 100.813 164.588 104.135C166.98 107.38 168.176 111.243 168.176 115.725C168.176 116.884 168.137 117.734 168.06 118.274H146.999C147.076 117.965 147.115 117.502 147.115 116.884C147.115 114.72 146.344 112.982 144.801 111.668C143.335 110.277 141.291 109.582 138.668 109.582C135.89 109.582 133.615 110.277 131.84 111.668C130.143 112.982 129.294 114.797 129.294 117.115C129.294 119.433 130.374 121.404 132.535 123.026C134.695 124.572 138.05 126.387 142.602 128.473C147.154 130.56 150.857 132.491 153.711 134.268C156.642 136.045 159.15 138.441 161.233 141.454C163.315 144.39 164.357 148.021 164.357 152.348C164.357 157.139 163.084 161.427 160.538 165.213C157.992 168.999 154.328 171.974 149.545 174.137C144.762 176.223 139.169 177.266 132.766 177.266Z" fill="black"/>
</svg>
