<svg width="1001" height="1388" viewBox="0 0 1001 1388" fill="none" xmlns="http://www.w3.org/2000/svg">
<path d="M86.2246 1310.45C63.4408 1310.45 44.8541 1305.55 30.4644 1295.76C16.2745 1285.77 9.1796 1271.68 9.1796 1253.49C9.1796 1251.69 9.37946 1248.99 9.77918 1245.4H63.1411C62.5415 1252.99 64.3402 1258.99 68.5372 1263.38C72.7342 1267.78 79.1296 1269.98 87.7235 1269.98C95.5179 1269.98 101.614 1268.28 106.01 1264.88C110.607 1261.48 112.906 1256.69 112.906 1250.49C112.906 1244.1 110.008 1238.9 104.212 1234.9C98.6157 1230.91 89.822 1226.41 77.8306 1221.41C66.2389 1216.62 56.7456 1212.12 49.3509 1207.92C42.1561 1203.53 35.8605 1197.63 30.4644 1190.24C25.0683 1182.84 22.3702 1173.55 22.3702 1162.36C22.1703 1148.57 25.5679 1136.57 32.5629 1126.38C39.5579 1116.19 49.251 1108.39 61.6421 1103C74.0333 1097.6 88.2231 1094.9 104.212 1094.9C118.601 1094.9 131.392 1097.2 142.584 1101.8C153.776 1106.2 162.47 1112.69 168.666 1121.28C174.861 1129.68 177.959 1139.67 177.959 1151.26C177.959 1154.26 177.859 1156.46 177.659 1157.86H123.098C123.298 1157.06 123.398 1155.86 123.398 1154.26C123.398 1148.67 121.399 1144.17 117.402 1140.77C113.605 1137.17 108.309 1135.37 101.514 1135.37C94.3188 1135.37 88.423 1137.17 83.8263 1140.77C79.4294 1144.17 77.231 1148.87 77.231 1154.86C77.231 1160.86 80.029 1165.95 85.625 1170.15C91.221 1174.15 99.9148 1178.84 111.706 1184.24C123.498 1189.64 133.091 1194.63 140.486 1199.23C148.08 1203.83 154.576 1210.02 159.972 1217.82C165.368 1225.41 168.066 1234.8 168.066 1246C168.066 1258.39 164.768 1269.48 158.173 1279.27C151.578 1289.06 142.085 1296.76 129.694 1302.36C117.302 1307.75 102.813 1310.45 86.2246 1310.45Z" fill="black"/>
<path d="M260.764 1250.79C260.564 1251.79 260.464 1253.09 260.464 1254.69C260.464 1258.29 261.463 1260.89 263.462 1262.48C265.66 1264.08 269.158 1264.88 273.954 1264.88H292.241L284.447 1308.35H258.366C224.79 1308.35 208.002 1294.26 208.002 1266.08C208.002 1261.88 208.501 1256.59 209.5 1250.19L221.492 1183.64H201.106L208.601 1141.07H228.987L236.181 1100.3H287.445L280.25 1141.07H313.826L306.331 1183.64H272.755L260.764 1250.79Z" fill="black"/>
<path d="M382.894 1141.07L403.28 1245.7L460.239 1141.07H515.7L367.306 1387.79H312.145L365.507 1302.66L325.935 1141.07H382.894Z" fill="black"/>
<path d="M597.235 1086.51L557.963 1308.35H506.7L545.972 1086.51H597.235Z" fill="black"/>
<path d="M655.713 1123.68C647.718 1123.68 641.323 1121.58 636.526 1117.39C631.93 1112.99 629.631 1107.49 629.631 1100.9C629.631 1091.91 633.129 1084.21 640.124 1077.82C647.119 1071.42 655.613 1068.22 665.606 1068.22C673.6 1068.22 679.895 1070.42 684.492 1074.82C689.089 1079.01 691.387 1084.51 691.387 1091.31C691.387 1100.1 687.89 1107.69 680.895 1114.09C673.9 1120.49 665.506 1123.68 655.713 1123.68ZM677.897 1141.07L648.518 1308.35H597.254L626.633 1141.07H677.897Z" fill="black"/>
<path d="M804.726 1117.09C794.933 1116.49 787.738 1117.89 783.141 1121.28C778.744 1124.68 775.746 1130.78 774.148 1139.57L773.848 1141.07H801.428L793.933 1183.64H766.353L744.469 1308.35H692.906L714.79 1183.64H696.203L703.698 1141.07H722.285L723.184 1136.27C726.981 1115.69 735.675 1100.1 749.265 1089.51C763.055 1078.72 781.342 1073.32 804.126 1073.32C807.724 1073.32 810.422 1073.42 812.22 1073.62L804.726 1117.09Z" fill="black"/>
<path d="M865.73 1141.07L886.116 1245.7L943.075 1141.07H998.536L850.142 1387.79H794.981L848.343 1302.66L808.771 1141.07H865.73Z" fill="black"/>
<path d="M0.625 500C0.625 223.858 224.483 0 500.625 0C776.767 0 1000.62 223.858 1000.62 500C1000.62 776.142 776.767 1000 500.625 1000C224.483 1000 0.625 776.142 0.625 500Z" fill="#01BEFE"/>
<path d="M708.913 446.907C705.872 446.907 703.247 449.039 702.625 452.016L683.925 541.45C683.09 545.441 686.136 549.189 690.213 549.189H767.539C771.087 549.189 773.963 552.065 773.963 555.613V663.005C773.963 666.553 771.087 669.429 767.539 669.429H662.311C659.274 669.429 656.652 671.556 656.025 674.527L632.971 783.791C632.344 786.762 629.722 788.889 626.685 788.889H517.607C513.525 788.889 510.479 785.132 511.321 781.139L533.257 677.18C534.099 673.186 531.052 669.429 526.971 669.429H413.31C410.273 669.429 407.651 671.556 407.024 674.527L383.97 783.791C383.343 786.762 380.721 788.889 377.684 788.889H268.606C264.524 788.889 261.478 785.132 262.32 781.139L284.255 677.18C285.098 673.186 282.051 669.429 277.97 669.429H179.271C175.723 669.429 172.847 666.553 172.847 663.005V555.613C172.847 552.065 175.723 549.189 179.271 549.189H305.877C308.918 549.189 311.542 547.057 312.165 544.08L330.865 454.646C331.699 450.655 328.653 446.907 324.577 446.907H228.155C224.607 446.907 221.731 444.031 221.731 440.483V333.091C221.731 329.543 224.607 326.667 228.155 326.667H351.717C354.753 326.667 357.374 324.542 358.002 321.572L380.289 216.206C380.917 213.236 383.538 211.111 386.574 211.111H495.651C499.734 211.111 502.781 214.87 501.936 218.864L480.774 318.913C479.929 322.908 482.976 326.667 487.059 326.667H600.719C603.754 326.667 606.375 324.542 607.003 321.572L629.29 216.206C629.918 213.236 632.54 211.111 635.575 211.111H744.652C748.735 211.111 751.782 214.87 750.937 218.864L729.775 318.913C728.93 322.908 731.977 326.667 736.06 326.667H816.423C819.971 326.667 822.847 329.543 822.847 333.091V440.483C822.847 444.031 819.971 446.907 816.423 446.907H708.913ZM579.866 454.646C580.7 450.655 577.655 446.907 573.578 446.907H459.912C456.871 446.907 454.246 449.039 453.624 452.016L434.924 541.45C434.089 545.441 437.135 549.189 441.212 549.189H554.878C557.919 549.189 560.543 547.057 561.166 544.08L579.866 454.646Z" fill="white"/>
<path d="M487.452 650C455.204 650 428.896 643.059 408.529 629.176C388.445 615.011 378.403 595.037 378.403 569.255C378.403 566.705 378.686 562.881 379.252 557.781H454.78C453.931 568.547 456.477 577.046 462.417 583.279C468.358 589.512 477.41 592.629 489.573 592.629C500.606 592.629 509.233 590.221 515.457 585.404C521.963 580.588 525.216 573.788 525.216 565.006C525.216 555.939 521.114 548.573 512.911 542.907C504.99 537.241 492.544 530.866 475.571 523.783C459.164 516.984 445.728 510.609 435.261 504.659C425.078 498.426 416.167 490.069 408.529 479.586C400.892 469.103 397.073 455.929 397.073 440.063C396.79 420.515 401.599 403.516 411.5 389.067C421.4 374.618 435.12 363.568 452.658 355.919C470.196 348.269 490.281 344.445 512.911 344.445C533.278 344.445 551.382 347.703 567.223 354.219C583.064 360.452 595.369 369.66 604.138 381.842C612.907 393.741 617.292 407.907 617.292 424.339C617.292 428.589 617.151 431.706 616.868 433.689H539.642C539.925 432.556 540.067 430.856 540.067 428.589C540.067 420.656 537.238 414.282 531.581 409.465C526.206 404.366 518.71 401.816 509.092 401.816C498.908 401.816 490.563 404.366 484.057 409.465C477.834 414.282 474.722 420.94 474.722 429.439C474.722 437.939 478.683 445.163 486.603 451.113C494.524 456.779 506.829 463.437 523.519 471.086C540.208 478.736 553.786 485.819 564.253 492.335C575.002 498.851 584.195 507.634 591.833 518.683C599.471 529.449 603.29 542.765 603.29 558.631C603.29 576.196 598.622 591.92 589.287 605.803C579.952 619.685 566.516 630.593 548.977 638.526C531.439 646.175 510.931 650 487.452 650Z" fill="black"/>
</svg>
