<svg width="1000" height="1388" viewBox="0 0 1000 1388" fill="none" xmlns="http://www.w3.org/2000/svg">
<path d="M85.5996 1310.45C62.8158 1310.45 44.2291 1305.55 29.8394 1295.76C15.6495 1285.77 8.5546 1271.68 8.5546 1253.49C8.5546 1251.69 8.75446 1248.99 9.15418 1245.4H62.5161C61.9165 1252.99 63.7152 1258.99 67.9122 1263.38C72.1092 1267.78 78.5046 1269.98 87.0985 1269.98C94.8929 1269.98 100.989 1268.28 105.385 1264.88C109.982 1261.48 112.281 1256.69 112.281 1250.49C112.281 1244.1 109.383 1238.9 103.587 1234.9C97.9907 1230.91 89.197 1226.41 77.2056 1221.41C65.6139 1216.62 56.1206 1212.12 48.7259 1207.92C41.5311 1203.53 35.2355 1197.63 29.8394 1190.24C24.4433 1182.84 21.7452 1173.55 21.7452 1162.36C21.5453 1148.57 24.9429 1136.57 31.9379 1126.38C38.9329 1116.19 48.626 1108.39 61.0171 1103C73.4083 1097.6 87.5981 1094.9 103.587 1094.9C117.976 1094.9 130.767 1097.2 141.959 1101.8C153.151 1106.2 161.845 1112.69 168.041 1121.28C174.236 1129.68 177.334 1139.67 177.334 1151.26C177.334 1154.26 177.234 1156.46 177.034 1157.86H122.473C122.673 1157.06 122.773 1155.86 122.773 1154.26C122.773 1148.67 120.774 1144.17 116.777 1140.77C112.98 1137.17 107.684 1135.37 100.889 1135.37C93.6938 1135.37 87.798 1137.17 83.2013 1140.77C78.8044 1144.17 76.606 1148.87 76.606 1154.86C76.606 1160.86 79.404 1165.95 85 1170.15C90.596 1174.15 99.2898 1178.84 111.081 1184.24C122.873 1189.64 132.466 1194.63 139.861 1199.23C147.455 1203.83 153.951 1210.02 159.347 1217.82C164.743 1225.41 167.441 1234.8 167.441 1246C167.441 1258.39 164.143 1269.48 157.548 1279.27C150.953 1289.06 141.46 1296.76 129.069 1302.36C116.677 1307.75 102.188 1310.45 85.5996 1310.45Z" fill="white"/>
<path d="M260.139 1250.79C259.939 1251.79 259.839 1253.09 259.839 1254.69C259.839 1258.29 260.838 1260.89 262.837 1262.48C265.035 1264.08 268.533 1264.88 273.329 1264.88H291.616L283.822 1308.35H257.741C224.165 1308.35 207.377 1294.26 207.377 1266.08C207.377 1261.88 207.876 1256.59 208.875 1250.19L220.867 1183.64H200.481L207.976 1141.07H228.362L235.556 1100.3H286.82L279.625 1141.07H313.201L305.706 1183.64H272.13L260.139 1250.79Z" fill="white"/>
<path d="M382.269 1141.07L402.655 1245.7L459.614 1141.07H515.075L366.681 1387.79H311.52L364.882 1302.66L325.31 1141.07H382.269Z" fill="white"/>
<path d="M596.61 1086.51L557.338 1308.35H506.075L545.347 1086.51H596.61Z" fill="white"/>
<path d="M655.088 1123.68C647.093 1123.68 640.698 1121.58 635.901 1117.39C631.305 1112.99 629.006 1107.49 629.006 1100.9C629.006 1091.91 632.504 1084.21 639.499 1077.82C646.494 1071.42 654.988 1068.22 664.981 1068.22C672.975 1068.22 679.27 1070.42 683.867 1074.82C688.464 1079.01 690.762 1084.51 690.762 1091.31C690.762 1100.1 687.265 1107.69 680.27 1114.09C673.275 1120.49 664.881 1123.68 655.088 1123.68ZM677.272 1141.07L647.893 1308.35H596.629L626.008 1141.07H677.272Z" fill="white"/>
<path d="M804.101 1117.09C794.308 1116.49 787.113 1117.89 782.516 1121.28C778.119 1124.68 775.121 1130.78 773.523 1139.57L773.223 1141.07H800.803L793.308 1183.64H765.728L743.844 1308.35H692.281L714.165 1183.64H695.578L703.073 1141.07H721.66L722.559 1136.27C726.356 1115.69 735.05 1100.1 748.64 1089.51C762.43 1078.72 780.717 1073.32 803.501 1073.32C807.099 1073.32 809.797 1073.42 811.595 1073.62L804.101 1117.09Z" fill="white"/>
<path d="M865.105 1141.07L885.491 1245.7L942.45 1141.07H997.911L849.517 1387.79H794.356L847.718 1302.66L808.146 1141.07H865.105Z" fill="white"/>
<path d="M0 500C0 223.858 223.858 0 500 0C776.142 0 1000 223.858 1000 500C1000 776.142 776.142 1000 500 1000C223.858 1000 0 776.142 0 500Z" fill="#01BEFE"/>
<path d="M708.288 446.907C705.247 446.907 702.622 449.039 702 452.016L683.3 541.45C682.465 545.441 685.511 549.189 689.588 549.189H766.914C770.462 549.189 773.338 552.065 773.338 555.613V663.005C773.338 666.553 770.462 669.429 766.914 669.429H661.686C658.649 669.429 656.027 671.556 655.4 674.527L632.346 783.791C631.719 786.762 629.097 788.889 626.06 788.889H516.982C512.9 788.889 509.854 785.132 510.696 781.139L532.632 677.18C533.474 673.186 530.427 669.429 526.346 669.429H412.685C409.648 669.429 407.026 671.556 406.399 674.527L383.345 783.791C382.718 786.762 380.096 788.889 377.059 788.889H267.981C263.899 788.889 260.853 785.132 261.695 781.139L283.63 677.18C284.473 673.186 281.426 669.429 277.345 669.429H178.646C175.098 669.429 172.222 666.553 172.222 663.005V555.613C172.222 552.065 175.098 549.189 178.646 549.189H305.252C308.293 549.189 310.917 547.057 311.54 544.08L330.24 454.646C331.074 450.655 328.028 446.907 323.952 446.907H227.53C223.982 446.907 221.106 444.031 221.106 440.483V333.091C221.106 329.543 223.982 326.667 227.53 326.667H351.092C354.128 326.667 356.749 324.542 357.377 321.572L379.664 216.206C380.292 213.236 382.913 211.111 385.949 211.111H495.026C499.109 211.111 502.156 214.87 501.311 218.864L480.149 318.913C479.304 322.908 482.351 326.667 486.434 326.667H600.094C603.129 326.667 605.75 324.542 606.378 321.572L628.665 216.206C629.293 213.236 631.915 211.111 634.95 211.111H744.027C748.11 211.111 751.157 214.87 750.312 218.864L729.15 318.913C728.305 322.908 731.352 326.667 735.435 326.667H815.798C819.346 326.667 822.222 329.543 822.222 333.091V440.483C822.222 444.031 819.346 446.907 815.798 446.907H708.288ZM579.241 454.646C580.075 450.655 577.03 446.907 572.953 446.907H459.287C456.246 446.907 453.621 449.039 452.999 452.016L434.299 541.45C433.464 545.441 436.51 549.189 440.587 549.189H554.253C557.294 549.189 559.918 547.057 560.541 544.08L579.241 454.646Z" fill="white"/>
<path d="M486.827 650C454.579 650 428.271 643.059 407.904 629.176C387.82 615.011 377.778 595.037 377.778 569.255C377.778 566.705 378.061 562.881 378.627 557.781H454.155C453.306 568.547 455.852 577.046 461.792 583.279C467.733 589.512 476.785 592.629 488.948 592.629C499.981 592.629 508.608 590.221 514.832 585.404C521.338 580.588 524.591 573.788 524.591 565.006C524.591 555.939 520.489 548.573 512.286 542.907C504.365 537.241 491.919 530.866 474.946 523.783C458.539 516.984 445.103 510.609 434.636 504.659C424.453 498.426 415.542 490.069 407.904 479.586C400.267 469.103 396.448 455.929 396.448 440.063C396.165 420.515 400.974 403.516 410.875 389.067C420.775 374.618 434.495 363.568 452.033 355.919C469.571 348.269 489.656 344.445 512.286 344.445C532.653 344.445 550.757 347.703 566.598 354.219C582.439 360.452 594.744 369.66 603.513 381.842C612.282 393.741 616.667 407.907 616.667 424.339C616.667 428.589 616.526 431.706 616.243 433.689H539.017C539.3 432.556 539.442 430.856 539.442 428.589C539.442 420.656 536.613 414.282 530.956 409.465C525.581 404.366 518.085 401.816 508.467 401.816C498.283 401.816 489.938 404.366 483.432 409.465C477.209 414.282 474.097 420.94 474.097 429.439C474.097 437.939 478.058 445.163 485.978 451.113C493.899 456.779 506.204 463.437 522.894 471.086C539.583 478.736 553.161 485.819 563.628 492.335C574.377 498.851 583.57 507.634 591.208 518.683C598.846 529.449 602.665 542.765 602.665 558.631C602.665 576.196 597.997 591.92 588.662 605.803C579.327 619.685 565.891 630.593 548.352 638.526C530.814 646.175 510.306 650 486.827 650Z" fill="black"/>
</svg>
