<?xml version="1.0" standalone="no"?>
<!DOCTYPE svg PUBLIC "-//W3C//DTD SVG 20010904//EN"
 "http://www.w3.org/TR/2001/REC-SVG-20010904/DTD/svg10.dtd">
<svg version="1.0" xmlns="http://www.w3.org/2000/svg"
 width="560.000000pt" height="560.000000pt" viewBox="0 0 560.000000 560.000000"
 preserveAspectRatio="xMidYMid meet">
<metadata>
Created by potrace 1.14, written by Peter Selinger 2001-2017
</metadata>
<g transform="translate(0.000000,560.000000) scale(0.100000,-0.100000)"
fill="#000000" stroke="none">
<path d="M0 2800 l0 -2800 2800 0 2800 0 0 2800 0 2800 -2800 0 -2800 0 0
-2800z m2850 2155 c0 -3 -40 -196 -90 -431 -49 -234 -90 -427 -90 -430 0 -2
216 -4 480 -4 264 0 480 2 480 4 0 2 40 196 90 430 50 234 90 428 90 431 0 3
207 5 460 5 l460 0 -5 -22 c-15 -64 -175 -829 -175 -838 0 -6 125 -10 355 -10
l355 0 0 -455 0 -455 -449 0 -449 0 -5 -22 c-4 -13 -38 -176 -77 -363 -39
-187 -73 -350 -77 -362 l-5 -23 346 0 346 0 0 -450 0 -450 -439 0 -440 0 -15
-72 c-9 -40 -52 -241 -95 -446 -43 -205 -80 -375 -83 -377 -3 -3 -209 -4 -459
-3 l-455 3 93 435 c50 239 92 441 93 448 0 9 -102 12 -478 12 l-479 0 -63
-297 c-34 -164 -77 -365 -94 -448 l-32 -150 -457 -3 c-331 -1 -457 1 -457 9 0
6 41 203 90 437 50 234 90 431 90 439 0 11 -78 13 -425 13 l-425 0 0 450 0
450 523 0 522 0 78 378 c43 207 78 380 77 385 0 4 -187 7 -415 7 l-415 0 0
455 0 455 509 0 c477 0 510 1 515 18 2 9 44 205 92 435 l88 417 458 0 c252 0
458 -2 458 -5z"/>
<path d="M2708 3945 c-239 -40 -444 -161 -554 -326 -68 -103 -95 -190 -101
-329 -7 -137 5 -204 53 -299 41 -82 135 -182 220 -235 l61 -37 -28 -130 c-15
-71 -30 -141 -33 -154 l-6 -25 330 0 329 0 16 -30 c19 -36 19 -120 1 -164 -18
-44 -78 -91 -135 -107 -59 -17 -175 -17 -224 0 -85 29 -146 114 -147 204 l0
47 -287 -2 -288 -3 -3 -88 c-5 -163 41 -282 152 -392 108 -107 257 -175 451
-206 116 -18 351 -16 459 5 411 80 652 349 633 706 -8 154 -49 242 -170 367
l-69 72 36 173 c20 95 36 177 36 181 0 4 -166 7 -368 7 -412 0 -384 -5 -417
73 -19 46 -19 88 0 135 35 82 103 123 216 130 90 5 136 -8 185 -51 46 -39 63
-74 67 -134 l3 -48 291 -3 292 -2 7 36 c11 60 -19 212 -57 290 -43 87 -149
196 -237 242 -83 44 -188 79 -291 97 -101 18 -316 18 -423 0z"/>
</g>
</svg>
