<svg width="521" height="115" viewBox="0 0 521 115" fill="none" xmlns="http://www.w3.org/2000/svg">
<path d="M177.692 87.366C172.738 87.366 168.314 86.622 164.421 85.134C160.529 83.646 157.485 81.5558 155.291 78.8632C153.097 76.0998 152 72.9467 152 69.4039C152 68.7662 152.071 67.8096 152.212 66.5342H172.278C172.207 68.5182 172.809 70.0416 174.083 71.1044C175.357 72.1673 177.126 72.6987 179.391 72.6987C181.16 72.6987 182.611 72.3444 183.744 71.6359C184.947 70.9273 185.549 70.0062 185.549 68.8725C185.549 67.5262 184.805 66.4988 183.319 65.7902C181.833 65.0108 179.356 64.0542 175.887 62.9205C171.853 61.6451 168.527 60.4051 165.908 59.2006C163.289 57.996 160.989 56.2246 159.007 53.8863C157.096 51.5481 156.14 48.5367 156.14 44.8521C156.14 41.3093 157.167 38.1208 159.219 35.2865C161.343 32.4523 164.315 30.2557 168.137 28.6969C171.959 27.0672 176.383 26.2523 181.408 26.2523C186.787 26.2523 191.423 27.1734 195.316 29.0157C199.28 30.7871 202.217 33.2671 204.128 36.4556C206.11 39.6442 206.994 43.187 206.782 47.0841H188.097C188.167 45.171 187.601 43.683 186.398 42.6201C185.195 41.4864 183.461 40.9196 181.196 40.9196C179.568 40.9196 178.223 41.2739 177.161 41.9824C176.1 42.691 175.569 43.6121 175.569 44.7458C175.569 46.0921 176.312 47.155 177.798 47.9344C179.356 48.7138 181.939 49.7058 185.549 50.9104C189.512 52.1858 192.803 53.4612 195.422 54.7366C198.112 55.9412 200.412 57.6771 202.323 59.9445C204.234 62.1411 205.189 64.9754 205.189 68.4473C205.189 74.3284 202.641 78.9695 197.545 82.3706C192.449 85.7009 185.832 87.366 177.692 87.366Z" fill="black"/>
<path d="M242.684 64.3022C242.613 64.6565 242.578 65.0816 242.578 65.5776C242.578 66.7113 242.897 67.5616 243.534 68.1285C244.241 68.6245 245.374 68.8725 246.931 68.8725H252.982L249.797 86.622H240.667C227.715 86.622 221.239 81.166 221.239 70.2542C221.239 68.4119 221.451 66.3216 221.876 63.9834L225.379 44.3207H218.054L221.132 26.9963H228.458L231.006 12.5416H251.921L249.373 26.9963H260.096L257.017 44.3207H246.294L242.684 64.3022Z" fill="black"/>
<path d="M289.048 26.9963L295.524 60.7948L313.572 26.9963H336.398L283.209 115H260.595L280.236 84.0712L265.904 26.9963H289.048Z" fill="black"/>
<path d="M368.682 7.97135L354.774 86.622H333.859L347.767 7.97135H368.682Z" fill="black"/>
<path d="M391.128 21.4695C387.872 21.4695 385.289 20.6547 383.378 19.025C381.538 17.3953 380.618 15.305 380.618 12.7542C380.618 10.4868 381.219 8.39649 382.423 6.48337C383.697 4.49938 385.395 2.94054 387.519 1.80684C389.713 0.60228 392.154 0 394.844 0C398.1 0 400.648 0.850279 402.488 2.55084C404.399 4.18053 405.355 6.30623 405.355 8.92792C405.355 11.1953 404.718 13.2856 403.444 15.1987C402.24 17.1118 400.542 18.6352 398.348 19.769C396.153 20.9027 393.747 21.4695 391.128 21.4695ZM400.471 26.9963L389.96 86.622H369.046L379.662 26.9963H400.471Z" fill="black"/>
<path d="M447.866 20.6192C447.3 20.5484 446.557 20.5129 445.637 20.5129C443.301 20.5129 441.532 21.0444 440.329 22.1072C439.125 23.0992 438.241 24.7289 437.674 26.9963H447.017L443.938 44.3207H434.596L427.164 86.622H406.249L413.681 44.3207H407.205L410.283 26.9963H416.76L416.866 26.4649C418.281 18.8124 421.573 12.9667 426.739 8.92792C431.906 4.81824 438.665 2.7634 447.017 2.7634C448.716 2.7634 450.025 2.79883 450.945 2.86969L447.866 20.6192Z" fill="black"/>
<path d="M473.65 26.9963L480.126 60.7948L498.174 26.9963H521L467.811 115H445.197L464.838 84.0712L450.505 26.9963H473.65Z" fill="black"/>
<path d="M106.986 47.5243L102.676 67.7054H121.148V91.4297H97.5958L92.5159 115H67.886L72.9659 91.4297H47.4125L42.3326 115H17.7027L22.7826 91.4297H0V67.7054H27.8625L32.1727 47.5243H9.85194V23.8H37.0987L42.0247 1H66.6545L61.7286 23.8H87.282L92.208 1H116.838L111.912 23.8H131V47.5243H106.986ZM82.3561 47.5243H56.8026L52.4924 67.7054H78.0458L82.3561 47.5243Z" fill="#01BEFE"/>
</svg>
