<?xml version="1.0" standalone="no"?>
<!DOCTYPE svg PUBLIC "-//W3C//DTD SVG 20010904//EN"
 "http://www.w3.org/TR/2001/REC-SVG-20010904/DTD/svg10.dtd">
<svg version="1.0" xmlns="http://www.w3.org/2000/svg"
 width="800.000000pt" height="800.000000pt" viewBox="0 0 800.000000 800.000000"
 preserveAspectRatio="xMidYMid meet">
<metadata>
Created by potrace 1.14, written by Peter Selinger 2001-2017
</metadata>
<g transform="translate(0.000000,800.000000) scale(0.100000,-0.100000)"
fill="#000000" stroke="none">
<path d="M3004 7558 c-7 -11 -22 -66 -30 -113 -3 -16 -14 -67 -25 -112 -10
-44 -21 -96 -24 -115 -3 -18 -10 -49 -15 -68 -7 -29 -31 -141 -46 -215 -2 -11
-22 -102 -43 -202 -22 -99 -43 -194 -46 -210 -6 -37 -9 -50 -35 -163 -26 -116
-27 -118 -34 -165 -4 -20 -8 -40 -10 -44 -2 -3 -7 -24 -10 -46 -4 -22 -11 -56
-16 -75 -5 -19 -11 -47 -14 -62 -3 -16 -12 -58 -20 -95 -9 -38 -24 -106 -34
-152 l-18 -85 -827 1 -827 0 -1 -31 c0 -17 -1 -191 -2 -386 l-2 -355 748 1
c458 1 747 -2 747 -7 0 -6 -16 -83 -35 -172 -55 -251 -74 -340 -79 -367 -7
-37 -124 -594 -141 -670 -22 -98 -94 -441 -99 -472 -3 -15 -7 -32 -11 -38 -4
-7 -286 -10 -841 -10 l-834 0 -1 -22 c0 -13 -1 -185 -1 -383 l-1 -360 757 -3
c715 -2 757 -3 752 -20 -3 -9 -25 -114 -50 -232 -25 -118 -86 -405 -136 -638
-123 -574 -220 -1033 -220 -1038 0 -2 189 -4 420 -4 329 0 420 3 421 13 1 17
4 34 34 172 15 66 29 130 31 143 2 12 6 32 8 45 3 12 20 94 40 182 19 88 37
171 40 185 2 14 37 174 77 355 39 182 72 337 73 345 2 8 5 24 9 35 3 11 9 36
12 55 3 19 15 76 26 125 11 50 22 101 25 115 2 14 10 48 16 75 15 64 15 63 17
75 1 7 345 10 1011 10 819 0 1010 -2 1010 -13 0 -7 -47 -231 -104 -497 -251
-1161 -296 -1371 -302 -1395 l-6 -25 421 0 421 0 5 28 c7 33 21 97 31 137 4
17 8 39 10 50 1 11 10 52 19 90 9 39 19 81 22 95 3 14 6 30 7 35 2 6 6 28 11
50 4 22 9 47 11 55 1 8 26 121 54 250 28 129 53 245 56 258 12 64 21 108 28
130 3 9 7 28 10 42 2 14 13 68 24 120 12 52 24 110 27 129 3 19 7 37 9 40 2 3
7 24 10 46 4 22 11 54 16 70 8 29 31 134 35 165 1 8 8 43 16 78 l13 62 748 0
748 0 0 385 0 385 -665 0 c-366 0 -665 3 -665 6 0 5 33 164 120 574 17 80 38
179 46 220 8 41 19 91 24 110 5 19 12 51 15 70 3 19 12 64 20 100 8 36 16 76
19 90 2 14 9 43 14 65 6 22 13 54 16 70 3 17 7 39 9 50 10 43 69 321 74 344 2
14 6 28 9 32 2 4 334 7 737 7 402 0 740 1 750 1 16 1 17 24 15 384 l-3 382
-663 1 c-364 0 -664 3 -666 5 -3 2 11 76 30 164 19 88 36 169 38 180 3 11 21
97 41 190 20 94 39 181 41 194 3 12 11 51 19 85 8 33 16 72 18 86 3 14 53 248
111 521 58 272 106 498 106 501 0 3 -189 6 -419 6 l-420 0 -6 -42 c-4 -22 -18
-90 -32 -151 -14 -60 -26 -119 -28 -130 -6 -32 -14 -68 -20 -95 -3 -14 -8 -38
-10 -55 -3 -16 -8 -38 -11 -47 -7 -22 -17 -70 -28 -130 -2 -13 -14 -66 -26
-118 -12 -52 -24 -108 -27 -125 -2 -16 -11 -55 -18 -85 -7 -30 -16 -68 -19
-85 -3 -16 -7 -39 -10 -50 -2 -11 -14 -65 -26 -120 -12 -55 -23 -107 -25 -115
-2 -8 -10 -51 -19 -95 -9 -44 -21 -96 -26 -115 -5 -19 -11 -48 -14 -65 -3 -16
-17 -82 -31 -145 -14 -63 -27 -122 -28 -130 -1 -8 -5 -19 -9 -25 -7 -11 -2003
-13 -2014 -2 -4 4 3 51 14 104 12 54 102 474 201 933 99 459 182 847 186 861
l7 27 -416 0 c-271 0 -418 -4 -422 -10z m2270 -2723 c0 -16 -33 -181 -73 -367
-87 -405 -75 -353 -101 -473 -11 -55 -23 -113 -26 -130 -2 -16 -7 -37 -9 -45
-3 -8 -19 -82 -36 -165 -17 -82 -32 -157 -34 -165 -6 -29 -37 -175 -41 -195
-2 -11 -8 -42 -14 -70 -6 -27 -13 -60 -16 -72 l-4 -23 -1010 0 c-821 0 -1010
2 -1010 13 0 7 11 67 25 132 14 66 51 239 81 385 30 146 66 318 80 384 14 65
27 128 30 140 2 11 15 75 29 141 15 66 37 174 51 240 13 66 27 129 29 140 3
11 10 43 16 70 6 28 12 57 14 65 2 8 4 18 4 22 1 3 454 5 1009 5 l1007 -2 -1
-30z"/>
<path d="M3857 4673 c-239 -40 -369 -186 -364 -407 4 -143 73 -243 221 -315
45 -22 122 -54 171 -71 188 -65 245 -105 245 -172 0 -79 -149 -119 -207 -55
-27 30 -45 65 -38 77 11 18 -20 21 -202 22 -143 1 -188 -2 -191 -12 -7 -19 18
-119 41 -170 47 -101 183 -195 327 -226 87 -18 251 -18 325 1 118 30 228 105
279 188 60 97 70 248 24 347 -24 55 -110 150 -134 150 -7 0 -14 4 -16 8 -3 8
-99 55 -158 77 -19 7 -72 27 -117 44 -130 49 -166 77 -177 135 -14 76 68 122
154 86 25 -10 51 -47 63 -90 4 -13 33 -15 198 -15 l194 1 -2 51 c-2 28 -14 76
-27 107 -84 190 -329 285 -609 239z"/>
</g>
</svg>
